<?xml version="1.0" encoding="UTF-8" standalone="no"?>
<svg
   xmlns:dc="http://purl.org/dc/elements/1.1/"
   xmlns:cc="http://creativecommons.org/ns#"
   xmlns:rdf="http://www.w3.org/1999/02/22-rdf-syntax-ns#"
   xmlns:svg="http://www.w3.org/2000/svg"
   xmlns="http://www.w3.org/2000/svg"
   xmlns:xlink="http://www.w3.org/1999/xlink"
   width="228"
   height="423"
   id="svg2"
   version="1.1">
  <defs
     id="defs4">
    <pattern
       xlink:href="#Strips1_1-7-5"
       id="pattern9313-9-8"
       patternTransform="matrix(0.78764254,1.3407155,-9.5105957,5.3962725,929.99999,-882.29318)" />
    <pattern
       id="Strips1_1-7-5"
       patternTransform="translate(0,0) scale(10,10)"
       height="1"
       width="2"
       patternUnits="userSpaceOnUse">
      <rect
         id="rect8592-4-2"
         height="2"
         width="1"
         y="-0.5"
         x="0"
         style="fill:black;stroke:none" />
    </pattern>
  </defs>
  <metadata
     id="metadata7">
    <rdf:RDF>
      <cc:Work
         rdf:about="">
        <dc:format>image/svg+xml</dc:format>
        <dc:type
           rdf:resource="http://purl.org/dc/dcmitype/StillImage" />
        <dc:title />
      </cc:Work>
    </rdf:RDF>
  </metadata>
  <g
     transform="translate(0,-763.36218)"
     id="layer1"
     style="display:inline">
    <g
       aria-label="DEBUG"
       id="export-label-debug"
       style="font-style:normal;font-variant:normal;font-weight:600;font-stretch:normal;font-size:10.6667px;line-height:0%;font-family:sans-serif;-inkscape-font-specification:'Avenir Next LT Pro Semi-Bold';text-align:center;letter-spacing:0px;word-spacing:0px;text-anchor:middle;fill:#ff0000;fill-opacity:1;stroke:none">
      <path
         d="m 170,1046.1062 h 2.67734 c 1.97334,0 4.17068,-1.1307 4.17068,-3.776 0,-2.8374 -2.19734,-3.776 -4.17068,-3.776 H 170 Z m 1.344,-1.1733 v -5.2267 h 1.12001 c 1.38667,0 2.94401,0.4586 2.94401,2.624 0,2.0373 -1.55734,2.6027 -2.94401,2.6027 z"
         style="font-style:normal;font-variant:normal;font-weight:600;font-stretch:normal;font-size:10.6667px;line-height:1.25;font-family:'Avenir Next LT Pro';-inkscape-font-specification:'Avenir Next LT Pro Semi-Bold';fill:#ff0000"
         id="path66203" />
      <path
         d="m 178.14936,1046.1062 h 5.19468 v -1.1947 h -3.85068 v -2.1333 h 3.46668 v -1.1307 h -3.46668 v -1.92 h 3.65868 v -1.1733 h -5.00268 z"
         style="font-style:normal;font-variant:normal;font-weight:600;font-stretch:normal;font-size:10.6667px;line-height:1.25;font-family:'Avenir Next LT Pro';-inkscape-font-specification:'Avenir Next LT Pro Semi-Bold';fill:#ff0000"
         id="path66205" />
      <path
         d="m 184.65603,1046.1062 h 2.72001 c 1.42934,0 2.85868,-0.5547 2.85868,-2.1973 0,-1.0134 -0.68267,-1.6534 -1.63201,-1.7814 v -0.021 c 0.77867,-0.2347 1.312,-0.8 1.312,-1.6534 0,-1.376 -1.17333,-1.8986 -2.31467,-1.8986 h -2.94401 z m 1.34401,-6.4427 h 1.07733 c 1.01334,0 1.49334,0.2667 1.49334,0.9387 0,0.6507 -0.48,1.024 -1.376,1.024 h -1.19467 z m 0,3.1147 h 1.25867 c 1.088,0 1.632,0.2773 1.632,1.0667 0,0.992 -0.992,1.1306 -1.68534,1.1306 h -1.20533 z"
         style="font-style:normal;font-variant:normal;font-weight:600;font-stretch:normal;font-size:10.6667px;line-height:1.25;font-family:'Avenir Next LT Pro';-inkscape-font-specification:'Avenir Next LT Pro Semi-Bold';fill:#ff0000"
         id="path66207" />
      <path
         d="m 197.5734,1038.5542 h -1.34401 v 4.7253 c 0,0.8747 -0.40533,1.8134 -1.696,1.8134 -1.29067,0 -1.69601,-0.9387 -1.69601,-1.8134 v -4.7253 h -1.344 v 4.7787 c 0,1.824 1.312,2.9653 3.04001,2.9653 1.728,0 3.04001,-1.1413 3.04001,-2.9653 z"
         style="font-style:normal;font-variant:normal;font-weight:600;font-stretch:normal;font-size:10.6667px;line-height:1.25;font-family:'Avenir Next LT Pro';-inkscape-font-specification:'Avenir Next LT Pro Semi-Bold';fill:#ff0000"
         id="path66209" />
      <path
         d="m 205.78674,1041.7969 h -2.89067 v 1.1093 h 1.58934 v 1.92 c -0.43734,0.1813 -0.93867,0.2667 -1.50401,0.2667 -1.664,0 -2.68801,-1.1734 -2.68801,-2.784 0,-1.5574 1.03467,-2.7627 2.62401,-2.7627 0.81067,0 1.54667,0.3413 1.93067,0.768 l 0.92801,-1.0027 c -0.608,-0.5653 -1.67467,-0.9493 -2.86934,-0.9493 -2.32535,0 -4.09602,1.5253 -4.09602,3.9467 0,2.3573 1.69601,3.9893 4.12802,3.9893 1.184,0 2.09067,-0.224 2.848,-0.5867 z"
         style="font-style:normal;font-variant:normal;font-weight:600;font-stretch:normal;font-size:10.6667px;line-height:1.25;font-family:'Avenir Next LT Pro';-inkscape-font-specification:'Avenir Next LT Pro Semi-Bold';fill:#ff0000"
         id="path66211" />
    </g>
  </g>
</svg>
