<?xml version="1.0" encoding="UTF-8" standalone="no"?>
<svg
   xmlns:dc="http://purl.org/dc/elements/1.1/"
   xmlns:cc="http://creativecommons.org/ns#"
   xmlns:rdf="http://www.w3.org/1999/02/22-rdf-syntax-ns#"
   xmlns:svg="http://www.w3.org/2000/svg"
   xmlns="http://www.w3.org/2000/svg"
   width="423"
   height="427"
   id="svg2"
   version="1.1">
  <defs
     id="defs4" />
  <metadata
     id="metadata7">
    <rdf:RDF>
      <cc:Work
         rdf:about="">
        <dc:format>image/svg+xml</dc:format>
        <dc:type
           rdf:resource="http://purl.org/dc/dcmitype/StillImage" />
        <dc:title />
      </cc:Work>
    </rdf:RDF>
  </metadata>
  <g
     transform="translate(0,-763.36218)"
     id="layer1"
     style="display:inline">
    <g
       id="export-label-signal-8-high"
       transform="translate(177,631)">
      <path
         id="rect2841"
         style="color:#000000;display:inline;overflow:visible;visibility:visible;fill:#ff6600;fill-opacity:1;fill-rule:nonzero;stroke:#d25500;stroke-width:1;stroke-opacity:1;marker:none;enable-background:accumulate"
         d="m 303.5,539.86218 h 19 v 12 h -19 z" />
      <g
         aria-label="8"
         id="text2845"
         style="font-style:normal;font-variant:normal;font-weight:600;font-stretch:normal;font-size:10.6667px;line-height:0%;font-family:'Avenir Next LT Pro';-inkscape-font-specification:'Avenir Next LT Pro Semi-Bold';text-align:center;letter-spacing:0px;word-spacing:0px;text-anchor:middle;fill:#000000;fill-opacity:1;stroke:none;stroke-width:1px;stroke-linecap:butt;stroke-linejoin:miter;stroke-opacity:1">
        <path
           d="m 313.03199,541.99017 c -1.32267,0 -2.38934,0.82133 -2.38934,2.10134 0,0.87467 0.50133,1.408 1.17334,1.65334 v 0.0213 c -0.73601,0.192 -1.41868,0.85334 -1.41868,1.83467 0,1.50401 1.18401,2.32534 2.63468,2.32534 1.45067,0 2.63467,-0.82133 2.63467,-2.32534 0,-0.928 -0.62933,-1.64267 -1.41867,-1.83467 v -0.0213 c 0.68267,-0.224 1.17334,-0.83201 1.17334,-1.70668 0,-1.28 -1.06667,-2.048 -2.38934,-2.048 z m 0,1.056 c 0.576,0 1.09867,0.416 1.09867,1.06667 0,0.608 -0.49067,1.09867 -1.09867,1.09867 -0.66134,0 -1.088,-0.49067 -1.088,-1.09867 0,-0.65067 0.45866,-1.06667 1.088,-1.06667 z m 0,3.25334 c 0.72533,0 1.30134,0.54401 1.30134,1.29068 0,0.78933 -0.56534,1.25867 -1.30134,1.25867 -0.74667,0 -1.312,-0.46934 -1.312,-1.25867 0,-0.76801 0.576,-1.29068 1.312,-1.29068 z"
           style="font-size:10.6667px;line-height:1.25"
           id="path99092" />
      </g>
    </g>
  </g>
</svg>
