<?xml version="1.0" encoding="UTF-8" standalone="no"?>
<svg
   xmlns:dc="http://purl.org/dc/elements/1.1/"
   xmlns:cc="http://creativecommons.org/ns#"
   xmlns:rdf="http://www.w3.org/1999/02/22-rdf-syntax-ns#"
   xmlns:svg="http://www.w3.org/2000/svg"
   xmlns="http://www.w3.org/2000/svg"
   xmlns:xlink="http://www.w3.org/1999/xlink"
   width="228"
   height="423"
   id="svg2"
   version="1.1">
  <defs
     id="defs4">
    <pattern
       xlink:href="#Strips1_1-7-5"
       id="pattern9313-9-8"
       patternTransform="matrix(0.78764254,1.3407155,-9.5105957,5.3962725,929.99999,-882.29318)" />
    <pattern
       id="Strips1_1-7-5"
       patternTransform="translate(0,0) scale(10,10)"
       height="1"
       width="2"
       patternUnits="userSpaceOnUse">
      <rect
         id="rect8592-4-2"
         height="2"
         width="1"
         y="-0.5"
         x="0"
         style="fill:black;stroke:none" />
    </pattern>
  </defs>
  <metadata
     id="metadata7">
    <rdf:RDF>
      <cc:Work
         rdf:about="">
        <dc:format>image/svg+xml</dc:format>
        <dc:type
           rdf:resource="http://purl.org/dc/dcmitype/StillImage" />
        <dc:title />
      </cc:Work>
    </rdf:RDF>
  </metadata>
  <g
     transform="translate(0,-763.36218)"
     id="layer1"
     style="display:inline">
    <g
       id="export-button-reference-level-20-on"
       transform="translate(-642,941.36218)"
       style="display:inline;enable-background:new">
      <path
         id="rect3973"
         style="color:#000000;clip-rule:nonzero;display:inline;overflow:visible;visibility:visible;isolation:auto;mix-blend-mode:normal;color-interpolation:sRGB;color-interpolation-filters:linearRGB;solid-color:#000000;solid-opacity:1;fill:#00ff00;fill-opacity:1;fill-rule:nonzero;stroke:#000000;stroke-width:0.999999;stroke-linecap:round;stroke-linejoin:round;stroke-miterlimit:4;stroke-dasharray:none;stroke-dashoffset:0;stroke-opacity:1;marker:none;color-rendering:auto;image-rendering:auto;shape-rendering:auto;text-rendering:auto;enable-background:accumulate"
         d="m 810.5,-111.5 h 39 c 5.54,0 10,4.237 10,9.5 0,5.263001 -4.46,9.500002 -10,9.500002 h -39 c -5.54,0 -10,-4.237001 -10,-9.500002 0,-5.263 4.46,-9.5 10,-9.5 z" />
      <g
         aria-label="-20 dB"
         id="text3977"
         style="font-style:normal;font-variant:normal;font-weight:600;font-stretch:normal;font-size:10.6667px;line-height:0%;font-family:sans-serif;-inkscape-font-specification:'Avenir Next LT Pro Semi-Bold';text-align:center;letter-spacing:0px;word-spacing:0px;text-anchor:middle;display:inline;fill:#000000;fill-opacity:1;stroke:none;enable-background:new">
        <path
           d="m 816.83748,-101.42933 h -2.56 v 1.088 h 2.56 z"
           style="font-style:normal;font-variant:normal;font-weight:600;font-stretch:normal;font-size:10.6667px;line-height:1.25;font-family:'Avenir Next LT Pro';-inkscape-font-specification:'Avenir Next LT Pro Semi-Bold';fill:#000000"
           id="path35720" />
        <path
           d="m 818.00015,-98.261322 h 5.02402 v -1.173337 h -3.40268 l 2.17601,-2.080011 c 0.672,-0.64 1.216,-1.312 1.216,-2.28267 0,-1.45067 -1.20534,-2.20801 -2.51734,-2.20801 -1.38667,0 -2.40001,0.91734 -2.54934,2.16534 l 1.248,0.192 c 0.096,-0.736 0.55467,-1.29067 1.28001,-1.29067 0.68267,0 1.20533,0.45867 1.20533,1.16267 0,0.58667 -0.29866,1.02401 -0.768,1.48268 l -2.91201,2.858671 z"
           style="font-style:normal;font-variant:normal;font-weight:600;font-stretch:normal;font-size:10.6667px;line-height:1.25;font-family:'Avenir Next LT Pro';-inkscape-font-specification:'Avenir Next LT Pro Semi-Bold';fill:#000000"
           id="path35722" />
        <path
           d="m 829.69084,-102.03733 c 0,-2.44268 -0.94933,-3.96802 -2.65601,-3.96802 -1.71734,0 -2.67734,1.52534 -2.67734,3.96802 0,2.44267 0.96,3.968009 2.67734,3.968009 1.70668,0 2.65601,-1.525339 2.65601,-3.968009 z m -1.312,0 c 0,1.056 -0.20267,2.880005 -1.34401,2.880005 -1.152,0 -1.36533,-1.824005 -1.36533,-2.880005 0,-1.05601 0.21333,-2.90135 1.36533,-2.90135 1.14134,0 1.34401,1.84534 1.34401,2.90135 z"
           style="font-style:normal;font-variant:normal;font-weight:600;font-stretch:normal;font-size:10.6667px;line-height:1.25;font-family:'Avenir Next LT Pro';-inkscape-font-specification:'Avenir Next LT Pro Semi-Bold';fill:#000000"
           id="path35724" />
        <path
           d="m 838.9175,-106.32535 h -1.28 v 3.59468 h -0.032 c -0.26667,-0.33067 -0.77867,-0.8 -1.71734,-0.8 -1.46134,0 -2.48534,1.17334 -2.48534,2.68801 0,1.493335 0.96,2.730672 2.51734,2.730672 0.71467,0 1.408,-0.330668 1.76001,-0.917336 h 0.0213 v 0.768002 h 1.216 z m -4.21334,5.48269 c 0,-0.80001 0.48,-1.64268 1.472,-1.64268 0.93867,0 1.50401,0.86401 1.50401,1.66401 0,0.8 -0.56534,1.642672 -1.50401,1.642672 -0.992,0 -1.472,-0.864002 -1.472,-1.664002 z"
           style="font-style:normal;font-variant:normal;font-weight:600;font-stretch:normal;font-size:10.6667px;line-height:1.25;font-family:'Avenir Next LT Pro';-inkscape-font-specification:'Avenir Next LT Pro Semi-Bold';fill:#000000"
           id="path35726" />
        <path
           d="m 840.53883,-98.261322 h 2.72001 c 1.42934,0 2.85867,-0.554668 2.85867,-2.197338 0,-1.01334 -0.68266,-1.65334 -1.632,-1.78134 v -0.0213 c 0.77867,-0.23467 1.312,-0.80001 1.312,-1.65334 0,-1.37601 -1.17333,-1.89868 -2.31467,-1.89868 h -2.94401 z m 1.344,-6.442688 h 1.07734 c 1.01334,0 1.49334,0.26667 1.49334,0.93867 0,0.65067 -0.48,1.024 -1.37601,1.024 h -1.19467 z m 0,3.11468 h 1.25867 c 1.08801,0 1.63201,0.27733 1.63201,1.06667 0,0.992001 -0.992,1.130668 -1.68534,1.130668 h -1.20534 z"
           style="font-style:normal;font-variant:normal;font-weight:600;font-stretch:normal;font-size:10.6667px;line-height:1.25;font-family:'Avenir Next LT Pro';-inkscape-font-specification:'Avenir Next LT Pro Semi-Bold';fill:#000000"
           id="path35728" />
      </g>
    </g>
  </g>
</svg>
