<?xml version="1.0" encoding="UTF-8" standalone="no"?>
<svg
   xmlns:dc="http://purl.org/dc/elements/1.1/"
   xmlns:cc="http://creativecommons.org/ns#"
   xmlns:rdf="http://www.w3.org/1999/02/22-rdf-syntax-ns#"
   xmlns:svg="http://www.w3.org/2000/svg"
   xmlns="http://www.w3.org/2000/svg"
   width="423"
   height="427"
   id="svg2"
   version="1.1">
  <defs
     id="defs4" />
  <metadata
     id="metadata7">
    <rdf:RDF>
      <cc:Work
         rdf:about="">
        <dc:format>image/svg+xml</dc:format>
        <dc:type
           rdf:resource="http://purl.org/dc/dcmitype/StillImage" />
        <dc:title />
      </cc:Work>
    </rdf:RDF>
  </metadata>
  <g
     transform="translate(0,-763.36218)"
     id="layer1"
     style="display:inline">
    <g
       aria-label="DEBUG"
       id="export-label-debug-multi"
       style="font-style:normal;font-variant:normal;font-weight:600;font-stretch:normal;font-size:10.6667px;line-height:0%;font-family:sans-serif;-inkscape-font-specification:'Avenir Next LT Pro Semi-Bold';text-align:center;letter-spacing:0px;word-spacing:0px;text-anchor:middle;fill:#ff0000;fill-opacity:1;stroke:none">
      <path
         d="m 365.00001,1046.1062 h 2.67735 c 1.97334,0 4.17068,-1.1307 4.17068,-3.776 0,-2.8374 -2.19734,-3.776 -4.17068,-3.776 h -2.67735 z m 1.34401,-1.1733 v -5.2267 h 1.12 c 1.38667,0 2.94401,0.4586 2.94401,2.624 0,2.0373 -1.55734,2.6027 -2.94401,2.6027 z"
         style="font-style:normal;font-variant:normal;font-weight:600;font-stretch:normal;font-size:10.6667px;line-height:1.25;font-family:'Avenir Next LT Pro';-inkscape-font-specification:'Avenir Next LT Pro Semi-Bold';fill:#ff0000"
         id="path15597" />
      <path
         d="m 373.14937,1046.1062 h 5.19469 v -1.1947 h -3.85068 v -2.1333 h 3.46667 v -1.1307 h -3.46667 v -1.92 h 3.65868 v -1.1733 h -5.00269 z"
         style="font-style:normal;font-variant:normal;font-weight:600;font-stretch:normal;font-size:10.6667px;line-height:1.25;font-family:'Avenir Next LT Pro';-inkscape-font-specification:'Avenir Next LT Pro Semi-Bold';fill:#ff0000"
         id="path15599" />
      <path
         d="m 379.65605,1046.1062 h 2.72001 c 1.42933,0 2.85867,-0.5547 2.85867,-2.1973 0,-1.0134 -0.68267,-1.6534 -1.632,-1.7814 v -0.021 c 0.77866,-0.2347 1.312,-0.8 1.312,-1.6534 0,-1.376 -1.17334,-1.8986 -2.31467,-1.8986 h -2.94401 z m 1.344,-6.4427 h 1.07734 c 1.01333,0 1.49334,0.2667 1.49334,0.9387 0,0.6507 -0.48001,1.024 -1.37601,1.024 h -1.19467 z m 0,3.1147 h 1.25867 c 1.088,0 1.63201,0.2773 1.63201,1.0667 0,0.992 -0.99201,1.1306 -1.68534,1.1306 h -1.20534 z"
         style="font-style:normal;font-variant:normal;font-weight:600;font-stretch:normal;font-size:10.6667px;line-height:1.25;font-family:'Avenir Next LT Pro';-inkscape-font-specification:'Avenir Next LT Pro Semi-Bold';fill:#ff0000"
         id="path15601" />
      <path
         d="m 392.57341,1038.5542 h -1.344 v 4.7253 c 0,0.8747 -0.40534,1.8134 -1.69601,1.8134 -1.29067,0 -1.696,-0.9387 -1.696,-1.8134 v -4.7253 h -1.34401 v 4.7787 c 0,1.824 1.31201,2.9653 3.04001,2.9653 1.72801,0 3.04001,-1.1413 3.04001,-2.9653 z"
         style="font-style:normal;font-variant:normal;font-weight:600;font-stretch:normal;font-size:10.6667px;line-height:1.25;font-family:'Avenir Next LT Pro';-inkscape-font-specification:'Avenir Next LT Pro Semi-Bold';fill:#ff0000"
         id="path15603" />
      <path
         d="m 400.78676,1041.7969 h -2.89068 v 1.1093 h 1.58934 v 1.92 c -0.43733,0.1813 -0.93867,0.2667 -1.504,0.2667 -1.66401,0 -2.68801,-1.1734 -2.68801,-2.784 0,-1.5574 1.03467,-2.7627 2.62401,-2.7627 0.81067,0 1.54667,0.3413 1.93067,0.768 l 0.928,-1.0027 c -0.608,-0.5653 -1.67467,-0.9493 -2.86934,-0.9493 -2.32534,0 -4.09601,1.5253 -4.09601,3.9467 0,2.3573 1.696,3.9893 4.12801,3.9893 1.184,0 2.09067,-0.224 2.84801,-0.5867 z"
         style="font-style:normal;font-variant:normal;font-weight:600;font-stretch:normal;font-size:10.6667px;line-height:1.25;font-family:'Avenir Next LT Pro';-inkscape-font-specification:'Avenir Next LT Pro Semi-Bold';fill:#ff0000"
         id="path15605" />
    </g>
  </g>
</svg>
