<?xml version="1.0" encoding="UTF-8" standalone="no"?>
<svg
   xmlns:dc="http://purl.org/dc/elements/1.1/"
   xmlns:cc="http://creativecommons.org/ns#"
   xmlns:rdf="http://www.w3.org/1999/02/22-rdf-syntax-ns#"
   xmlns:svg="http://www.w3.org/2000/svg"
   xmlns="http://www.w3.org/2000/svg"
   width="423"
   height="427"
   id="svg2"
   version="1.1">
  <defs
     id="defs4" />
  <metadata
     id="metadata7">
    <rdf:RDF>
      <cc:Work
         rdf:about="">
        <dc:format>image/svg+xml</dc:format>
        <dc:type
           rdf:resource="http://purl.org/dc/dcmitype/StillImage" />
        <dc:title />
      </cc:Work>
    </rdf:RDF>
  </metadata>
  <g
     transform="translate(0,-763.36218)"
     id="layer1"
     style="display:inline">
    <g
       id="export-label-signal-6-high"
       transform="translate(177,591)">
      <path
         id="rect2793"
         style="color:#000000;display:inline;overflow:visible;visibility:visible;fill:#ff6600;fill-opacity:1;fill-rule:nonzero;stroke:#d25500;stroke-width:1;stroke-opacity:1;marker:none;enable-background:accumulate"
         d="m 303.5,539.86218 h 19 v 12 h -19 z" />
      <g
         aria-label="6"
         id="text2797"
         style="font-style:normal;font-variant:normal;font-weight:600;font-stretch:normal;font-size:10.6667px;line-height:0%;font-family:'Avenir Next LT Pro';-inkscape-font-specification:'Avenir Next LT Pro Semi-Bold';text-align:center;letter-spacing:0px;word-spacing:0px;text-anchor:middle;fill:#000000;fill-opacity:1;stroke:none;stroke-width:1px;stroke-linecap:butt;stroke-linejoin:miter;stroke-opacity:1">
        <path
           d="m 312.92532,542.18217 -1.888,2.92267 c -0.49067,0.77867 -0.77867,1.36534 -0.77867,2.22934 0,1.46134 1.184,2.59201 2.76267,2.59201 1.54667,0 2.75201,-1.04533 2.75201,-2.64534 0,-1.376 -1.07734,-2.42134 -2.41067,-2.42134 -0.256,0 -0.59734,0.0427 -0.80001,0.128 l -0.0107,-0.0107 1.93067,-2.79467 z m -1.36534,5.18401 c 0,-0.88533 0.60801,-1.49333 1.47201,-1.49333 0.85334,0 1.42934,0.61866 1.42934,1.472 0,0.896 -0.58667,1.49334 -1.45067,1.49334 -0.88534,0 -1.45068,-0.68267 -1.45068,-1.47201 z"
           style="font-size:10.6667px;line-height:1.25"
           id="path88190" />
      </g>
    </g>
  </g>
</svg>
