<?xml version="1.0" encoding="UTF-8" standalone="no"?>
<svg
   xmlns:dc="http://purl.org/dc/elements/1.1/"
   xmlns:cc="http://creativecommons.org/ns#"
   xmlns:rdf="http://www.w3.org/1999/02/22-rdf-syntax-ns#"
   xmlns:svg="http://www.w3.org/2000/svg"
   xmlns="http://www.w3.org/2000/svg"
   width="423"
   height="427"
   id="svg2"
   version="1.1">
  <defs
     id="defs4" />
  <metadata
     id="metadata7">
    <rdf:RDF>
      <cc:Work
         rdf:about="">
        <dc:format>image/svg+xml</dc:format>
        <dc:type
           rdf:resource="http://purl.org/dc/dcmitype/StillImage" />
        <dc:title />
      </cc:Work>
    </rdf:RDF>
  </metadata>
  <g
     transform="translate(0,-763.36218)"
     id="layer1"
     style="display:inline">
    <g
       id="export-label-signal-5-high"
       transform="translate(177,571)">
      <path
         id="rect2769"
         style="color:#000000;display:inline;overflow:visible;visibility:visible;fill:#ff6600;fill-opacity:1;fill-rule:nonzero;stroke:#d25500;stroke-width:1;stroke-opacity:1;marker:none;enable-background:accumulate"
         d="m 303.5,539.86218 h 19 v 12 h -19 z" />
      <g
         aria-label="5"
         id="text2773"
         style="font-style:normal;font-variant:normal;font-weight:600;font-stretch:normal;font-size:10.6667px;line-height:0%;font-family:'Avenir Next LT Pro';-inkscape-font-specification:'Avenir Next LT Pro Semi-Bold';text-align:center;letter-spacing:0px;word-spacing:0px;text-anchor:middle;fill:#000000;fill-opacity:1;stroke:none;stroke-width:1px;stroke-linecap:butt;stroke-linejoin:miter;stroke-opacity:1">
        <path
           d="m 315.16533,542.18217 h -4.29868 l -0.128,4.12801 c 0.45867,-0.23467 1.184,-0.416 1.76,-0.416 0.82134,0 1.68534,0.34133 1.68534,1.504 0,0.91734 -0.65067,1.44001 -1.408,1.44001 -0.672,0 -1.20534,-0.39467 -1.41867,-0.992 l -1.16267,0.42666 c 0.39466,1.01334 1.29067,1.65334 2.54934,1.65334 1.504,0 2.75201,-0.992 2.75201,-2.66667 0,-1.52534 -1.12001,-2.38934 -2.60268,-2.38934 -0.26667,0 -0.65067,0.032 -0.88533,0.096 l 0.0747,-1.63201 h 3.08268 z"
           style="font-size:10.6667px;line-height:1.25"
           id="path82739" />
      </g>
    </g>
  </g>
</svg>
